HIERARCHY
ROOT Hips
{
	OFFSET 0.00000 0.00000 0.00000
	CHANNELS 6 Xposition Yposition Zposition Zrotation Yrotation Xrotation 
	JOINT LHipJoint
	{
		OFFSET 0 0 0
		CHANNELS 3 Zrotation Yrotation Xrotation
		JOINT LeftHip
		{
			OFFSET 1.84395 -1.68683 0.74144
			CHANNELS 3 Zrotation Yrotation Xrotation
			JOINT LeftKnee
			{
				OFFSET 2.27037 -6.23779 0.00000
				CHANNELS 3 Zrotation Yrotation Xrotation
				JOINT LeftAnkle
				{
					OFFSET 2.56918 -7.05877 0.00000
					CHANNELS 3 Zrotation Yrotation Xrotation
					JOINT LeftToe
					{
						OFFSET 0.22276 -0.61202 1.71784
						CHANNELS 3 Zrotation Yrotation Xrotation
						End Site
						{
							OFFSET 0.00000 -0.00000 0.91613
						}
					}
				}
			}
		}
	}
	JOINT RHipJoint
	{
		OFFSET 0 0 0
		CHANNELS 3 Zrotation Yrotation Xrotation
		JOINT RightHip
		{
			OFFSET -1.76833 -1.68684 0.74144
			CHANNELS 3 Zrotation Yrotation Xrotation
			JOINT RightKnee
			{
				OFFSET -2.49360 -6.85110 0.00000
				CHANNELS 3 Zrotation Yrotation Xrotation
				JOINT RightAnkle
				{
					OFFSET -2.55538 -7.02085 0.00000
					CHANNELS 3 Zrotation Yrotation Xrotation
					JOINT RightToe
					{
						OFFSET -0.21516 -0.59115 1.68050
						CHANNELS 3 Zrotation Yrotation Xrotation
						End Site
						{
							OFFSET -0.00000 -0.00000 0.89604
						}
					}
				}
			}
		}
	}
	JOINT lowerback
	{
		OFFSET 0 0 0
		CHANNELS 3 Zrotation Yrotation Xrotation
		JOINT Chest
		{
			OFFSET 0.06382 1.72312 -0.19613
			CHANNELS 3 Zrotation Yrotation Xrotation
			JOINT Chest2
			{
				OFFSET -0.00055 1.73507 0.23859
				CHANNELS 3 Zrotation Yrotation Xrotation
				JOINT lowerneck
				{
					OFFSET 0 0 0
					CHANNELS 3 Zrotation Yrotation Xrotation
					JOINT Neck
					{
						OFFSET 0.03638 1.65562 0.09633
						CHANNELS 3 Zrotation Yrotation Xrotation
						JOINT Head
						{
							OFFSET 0.06388 1.62807 -0.32386
							CHANNELS 3 Zrotation Yrotation Xrotation
							End Site
							{
								OFFSET 0.00995 1.67644 -0.12021
							}
						}
					}
				}
				JOINT LeftCollar
				{
					OFFSET 0 0 0
					CHANNELS 3 Zrotation Yrotation Xrotation
					JOINT LeftShoulder
					{
						OFFSET 3.09648 1.42991 0.28122
CHANNELS 3 Zrotation Xrotation Yrotation
						JOINT LeftElbow
						{
OFFSET 0 -5.118780 -0.000000
CHANNELS 3 Zrotation Xrotation Yrotation
							JOINT LeftWrist
							{
OFFSET 0 -3.599710 0.000000
CHANNELS 3 Zrotation Xrotation Yrotation
								JOINT lhand
								{
									OFFSET 0 0 0
CHANNELS 3 Zrotation Xrotation Yrotation
									JOINT LFingers
									{
OFFSET 0 -0.628770 0.000000
CHANNELS 3 Zrotation Xrotation Yrotation
										End Site
										{
OFFSET 0 -0.506930 0.000000
										}
									}
								}
								JOINT LThumb
								{
OFFSET 0 0.000000 0.000000
CHANNELS 3 Zrotation Xrotation Yrotation
									End Site
									{
OFFSET 0 -0.514670 0.514670
									}
								}
							}
						}
					}
				}
				JOINT RightCollar
				{
					OFFSET 0 0 0
					CHANNELS 3 Zrotation Yrotation Xrotation
					JOINT RightShoulder
					{
						OFFSET -3.33565 1.14597 0.05047
CHANNELS 3 Zrotation Xrotation Yrotation
						JOINT RightElbow
						{
OFFSET 0 -5.490200 0.000000
CHANNELS 3 Zrotation Xrotation Yrotation
							JOINT RightWrist
							{
OFFSET 0 -3.206590 -0.000000
CHANNELS 3 Zrotation Xrotation Yrotation
								JOINT rhand
								{
									OFFSET 0 0 0
CHANNELS 3 Zrotation Xrotation Yrotation
									JOINT RFingers
									{
OFFSET 0 -0.691880 0.000000
CHANNELS 3 Zrotation Xrotation Yrotation
										End Site
										{
OFFSET 0 -0.557810 0.000000
										}
									}
								}
								JOINT RThumb
								{
OFFSET 0 0.000000 0.000000
CHANNELS 3 Zrotation Xrotation Yrotation
									End Site
									{
OFFSET 0 -0.566330 0.566330
									}
								}
							}
						}
					}
				}
			}
		}
	}
}
MOTION
Frames: 5
Frame Time: .0083333
-0.3470 17.5027 7.7205 -7.9355 -3.1906 6.6443 0.0000 0.0000 0.0000 -21.5308 -34.0187 25.1636 0.0591 -1.5683 -4.3139 -5.0083 39.3228 -34.5158 0.0903 1.9378 5.3338 0.0000 0.0000 0.0000 28.4320 22.5205 9.9300 -0.0044 -0.4284 1.1770 0.2971 -15.3902 -18.4343 -0.0116 -0.6946 1.9089 6.3767 2.4013 0.5353 0.8231 3.6506 -8.5113 -2.9729 1.3514 -8.9764 -2.7376 -5.4487 -13.4789 9.1571 -9.5453 24.3465 2.4471 -3.6051 10.6447 0.0000 0.0000 0.0000 7.7635 -7.6262 -65.5577 111.9914 -58.0914 78.9231 26.1143 -29.692 5.9078 0.0 0.0 0.0 -7.1250 0.0 0.0 -0.4464 23.4059 -0.2323 0.0000 0.0000 0.0000 -4.5776 -20.5532 66.0097 -118.4295 -56.7141 -84.3491 -7.8509 -9.8891 50.8787 0.0 0.0 0.0 7.1250 0.0 -0.0 61.7855 73.4071 -45.688
-0.3527 17.5015 7.7188 -8.0371 -3.0444 6.6399 0.0000 0.0000 0.0000 -21.3912 -34.1114 25.1907 0.0594 -1.5723 -4.3250 -4.9994 39.2957 -34.4894 0.0915 1.9504 5.3687 0.0000 0.0000 0.0000 28.5920 22.5217 9.9376 -0.0047 -0.4407 1.2110 0.3018 -15.4743 -18.5178 -0.0127 -0.7270 1.9979 6.3362 2.3424 0.5710 0.9354 3.5792 -8.4776 -2.8275 1.3250 -8.9759 -2.8099 -5.4501 -13.2979 9.2306 -9.4921 23.8469 2.4918 -3.6025 10.4297 -0.0000 -0.0000 0.0000 7.8075 -7.4655 -65.2664 112.0326 -58.0839 78.958 26.5846 -29.6664 5.9962 0.0 0.0 0.0 -7.1250 0.0 0.0 -0.1020 23.2808 -0.0534 -0.0000 -0.0000 0.0000 -4.0525 -20.2349 65.6304 -119.4747 -56.4483 -85.2214 -7.5061 -9.9469 50.9156 0.0 0.0 0.0 7.1250 0.0 -0.0 62.1201 73.2952 -45.8565
-0.3555 17.5006 7.7167 -8.0776 -2.8591 6.6779 0.0000 0.0000 0.0000 -21.2861 -34.2286 25.1190 0.0587 -1.5635 -4.3007 -4.9880 39.2407 -34.3924 0.0911 1.9470 5.3591 0.0000 0.0000 0.0000 28.5987 22.4030 9.8116 -0.0049 -0.4505 1.2379 0.2993 -15.4742 -18.5490 -0.0145 -0.7773 2.1362 6.2764 2.2660 0.5826 1.0325 3.4811 -8.4632 -2.6847 1.2858 -8.9845 -2.8540 -5.4137 -13.1328 9.2344 -9.3791 23.4015 2.5154 -3.5751 10.2293 -0.0000 -0.0000 0.0000 7.8276 -7.2553 -64.9746 112.1845 -58.0562 79.087 27.0502 -29.4464 5.9087 0.0 0.0 0.0 -7.1250 0.0 0.0 0.2454 23.3515 0.128 -0.0000 -0.0000 0.0000 -3.5601 -19.9464 65.3818 -120.6742 -56.1276 -86.2193 -6.6334 -11.6391 51.4359 0.0 0.0 0.0 7.1250 0.0 -0.0 64.2715 73.1824 -47.616
-0.3560 17.5004 7.7152 -8.0423 -2.7000 6.7158 0.0000 0.0000 0.0000 -21.2894 -34.3432 25.0674 0.0584 -1.5600 -4.2910 -4.9942 39.2214 -34.2899 0.0884 1.9180 5.2791 0.0000 0.0000 0.0000 28.5225 22.3321 9.7336 -0.0047 -0.4419 1.2142 0.2990 -15.5129 -18.6194 -0.0181 -0.8678 2.3852 6.2418 2.2333 0.6025 1.0447 3.4378 -8.4557 -2.6504 1.2675 -8.9940 -2.8844 -5.4077 -13.0366 9.2718 -9.3380 23.0943 2.5386 -3.5683 10.1003 -0.0000 -0.0000 0.0000 7.928 -7.0122 -64.787 112.4253 -58.0118 79.2913 27.4243 -29.1857 5.5281 0.0 0.0 0.0 -7.1250 0.0 0.0 0.5380 23.757 0.2757 -0.0000 -0.0000 0.0000 -3.1735 -19.6605 65.2796 -121.7016 -55.8392 -87.0708 -5.9644 -13.4075 52.3081 0.0 0.0 0.0 7.1250 0.0 -0.0 67.3850 73.2525 -50.4721
-0.3568 17.5013 7.7151 -7.9741 -2.6160 6.7438 0.0000 0.0000 0.0000 -21.3265 -34.3953 25.0228 0.0588 -1.5640 -4.3022 -5.0099 39.2187 -34.1750 0.0834 1.8631 5.1275 0.0000 0.0000 0.0000 28.4468 22.3626 9.7318 -0.0044 -0.4284 1.1771 0.3031 -15.5920 -18.7020 -0.0212 -0.9398 2.5831 6.1831 2.2226 0.5988 1.0252 3.4177 -8.4386 -2.6366 1.2623 -8.9755 -3.0151 -5.4587 -12.8480 9.3859 -9.3627 22.6720 2.5974 -3.5993 9.9269 0.0000 -0.0000 0.0000 8.0636 -6.725 -64.5531 112.6727 -57.9656 79.501 27.7788 -29.2996 5.3834 0.0 0.0 0.0 -7.1250 0.0 0.0 0.8073 23.9001 0.4111 0.0000 -0.0000 0.0000 -2.921 -19.4725 65.5084 -122.3298 -55.6565 -87.5901 -6.1947 -14.2932 53.9177 0.0 0.0 0.0 7.1250 0.0 -0.0 72.5302 73.8086 -55.8379
